<svg xmlns="http://www.w3.org/2000/svg" width="1600" height="900" viewBox="0 0 1600 900"><rect width="1600" height="900" fill="#f7f9fb"/><rect width="1600" height="8" fill="#0b2447"/><text x="64" y="49" font-family="Arial, Helvetica, sans-serif" font-size="11" font-weight="700" fill="#4e83a6" text-anchor="start">NORTHSTAR MARITIME SERVICES</text><text x="64" y="82" font-family="Arial, Helvetica, sans-serif" font-size="27" font-weight="700" fill="#102a43" text-anchor="start">Crew Organization &amp; Vessel Allocation</text><text x="1536" y="52" font-family="Arial, Helvetica, sans-serif" font-size="9" font-weight="700" fill="#688094" text-anchor="end">EFFECTIVE DATE</text><text x="1536" y="73" font-family="Arial, Helvetica, sans-serif" font-size="13" font-weight="700" fill="#24465f" text-anchor="end">01 Jul 2026</text><line x1="64" y1="100" x2="1536" y2="100" stroke="#d7e0e7"/><g><rect x="550" y="116" width="500" height="70" rx="8" fill="#0b2447" stroke="#0b2447"/><rect x="550" y="116" width="5" height="70" rx="2.5" fill="#4e83a6"/><text x="568" y="134" font-family="Arial, Helvetica, sans-serif" font-size="9" font-weight="700" fill="#8eb7d1" text-anchor="start">HEAD / BOSS</text><text x="568" y="158" font-family="Arial, Helvetica, sans-serif" font-size="18" font-weight="700" fill="#ffffff" text-anchor="start">Anita Rao</text><text x="568" y="175" font-family="Arial, Helvetica, sans-serif" font-size="11" font-weight="400" fill="#b9cce0" text-anchor="start">Managing Director</text></g><line x1="800" y1="186" x2="800" y2="204" stroke="#7792a7" stroke-width="2"/><g><rect x="590" y="204" width="420" height="70" rx="8" fill="#ffffff" stroke="#ced8e1"/><rect x="590" y="204" width="5" height="70" rx="2.5" fill="#4e83a6"/><text x="608" y="222" font-family="Arial, Helvetica, sans-serif" font-size="9" font-weight="700" fill="#4e83a6" text-anchor="start">CREW OPERATIONS</text><text x="608" y="246" font-family="Arial, Helvetica, sans-serif" font-size="18" font-weight="700" fill="#102a43" text-anchor="start">Marcus Pereira</text><text x="608" y="263" font-family="Arial, Helvetica, sans-serif" font-size="11" font-weight="400" fill="#557086" text-anchor="start">Crew Operations Manager</text></g><line x1="800" y1="274" x2="800" y2="297" stroke="#7792a7" stroke-width="2"/><line x1="160" y1="297" x2="1440" y2="297" stroke="#b7c7d3"/><g><rect x="64" y="318" width="1472" height="530" rx="10" fill="#ffffff" stroke="#cbd6df"/><rect x="64" y="318" width="1472" height="64" rx="10" fill="#102f4f"/><rect x="64" y="372" width="1472" height="10" fill="#102f4f"/><circle cx="95" cy="350" r="18" fill="#315f80"/><text x="95" y="355" font-family="Arial, Helvetica, sans-serif" font-size="11" font-weight="700" fill="#fff" text-anchor="middle">CM</text><text x="122" y="341" font-family="Arial, Helvetica, sans-serif" font-size="8" font-weight="700" fill="#8fb5cf" text-anchor="start">CREW MANAGER</text><text x="122" y="361" font-family="Arial, Helvetica, sans-serif" font-size="15" font-weight="700" fill="#fff" text-anchor="start">Crew Manager 1</text><text x="122" y="375" font-family="Arial, Helvetica, sans-serif" font-size="9" font-weight="400" fill="#c2d3df" text-anchor="start">Senior Crew Manager</text><text x="82" y="404" font-family="Arial, Helvetica, sans-serif" font-size="9" font-weight="700" fill="#516b80" text-anchor="start">TEAM ASSISTANTS  1</text><rect x="82" y="416" width="1436" height="23" rx="5" fill="#eef4f7"/><text x="90" y="431" font-family="Arial, Helvetica, sans-serif" font-size="10" font-weight="600" fill="#24465f" text-anchor="start">Assistant 1.1</text><line x1="82" y1="462" x2="1518" y2="462" stroke="#e1e7ec"/><text x="82" y="483" font-family="Arial, Helvetica, sans-serif" font-size="9" font-weight="700" fill="#516b80" text-anchor="start">VESSELS HANDLED  3</text><rect x="82" y="493" width="1436" height="33" rx="5" fill="#f8fafb" stroke="#e1e7ec"/><circle cx="96" cy="508" r="5" fill="#4e83a6"/><text x="109" y="508" font-family="Arial, Helvetica, sans-serif" font-size="10" font-weight="700" fill="#17344c" text-anchor="start">MV Horizon 1-1</text><text x="109" y="521" font-family="Arial, Helvetica, sans-serif" font-size="8" font-weight="400" fill="#6a7e8f" text-anchor="start">Bulk Carrier</text><rect x="82" y="531" width="1436" height="33" rx="5" fill="#f8fafb" stroke="#e1e7ec"/><circle cx="96" cy="546" r="5" fill="#4e83a6"/><text x="109" y="546" font-family="Arial, Helvetica, sans-serif" font-size="10" font-weight="700" fill="#17344c" text-anchor="start">MV Horizon 1-2</text><text x="109" y="559" font-family="Arial, Helvetica, sans-serif" font-size="8" font-weight="400" fill="#6a7e8f" text-anchor="start">Active</text><rect x="82" y="569" width="1436" height="33" rx="5" fill="#f8fafb" stroke="#e1e7ec"/><circle cx="96" cy="584" r="5" fill="#4e83a6"/><text x="109" y="584" font-family="Arial, Helvetica, sans-serif" font-size="10" font-weight="700" fill="#17344c" text-anchor="start">MV Horizon 1-3</text><text x="109" y="597" font-family="Arial, Helvetica, sans-serif" font-size="8" font-weight="400" fill="#6a7e8f" text-anchor="start">Bulk Carrier • Active</text></g><line x1="64" y1="866" x2="1536" y2="866" stroke="#d7e0e7"/><text x="64" y="887" font-family="Arial, Helvetica, sans-serif" font-size="9" font-weight="400" fill="#6a7e8f" text-anchor="start">Internal presentation • Crew Operations</text><text x="1536" y="887" font-family="Arial, Helvetica, sans-serif" font-size="9" font-weight="700" fill="#6a7e8f" text-anchor="end">1 CREW MANAGEMENT TEAMS</text></svg>