<svg xmlns="http://www.w3.org/2000/svg" width="1600" height="900" viewBox="0 0 1600 900"><rect width="1600" height="900" fill="#f7f9fb"/><rect width="1600" height="8" fill="#0b2447"/><text x="64" y="49" font-family="Arial, Helvetica, sans-serif" font-size="11" font-weight="700" fill="#4e83a6" text-anchor="start">NORTHSTAR MARITIME SERVICES</text><text x="64" y="82" font-family="Arial, Helvetica, sans-serif" font-size="27" font-weight="700" fill="#102a43" text-anchor="start">Crew Organization &amp; Vessel Allocation</text><text x="1536" y="52" font-family="Arial, Helvetica, sans-serif" font-size="9" font-weight="700" fill="#688094" text-anchor="end">EFFECTIVE DATE</text><text x="1536" y="73" font-family="Arial, Helvetica, sans-serif" font-size="13" font-weight="700" fill="#24465f" text-anchor="end">01 Jul 2026</text><line x1="64" y1="100" x2="1536" y2="100" stroke="#d7e0e7"/><g><rect x="550" y="116" width="500" height="70" rx="8" fill="#0b2447" stroke="#0b2447"/><rect x="550" y="116" width="5" height="70" rx="2.5" fill="#4e83a6"/><text x="568" y="134" font-family="Arial, Helvetica, sans-serif" font-size="9" font-weight="700" fill="#8eb7d1" text-anchor="start">HEAD / BOSS</text><text x="568" y="158" font-family="Arial, Helvetica, sans-serif" font-size="18" font-weight="700" fill="#ffffff" text-anchor="start">Anita Rao</text><text x="568" y="175" font-family="Arial, Helvetica, sans-serif" font-size="11" font-weight="400" fill="#b9cce0" text-anchor="start">Managing Director</text></g><line x1="800" y1="186" x2="800" y2="204" stroke="#7792a7" stroke-width="2"/><g><rect x="590" y="204" width="420" height="70" rx="8" fill="#ffffff" stroke="#ced8e1"/><rect x="590" y="204" width="5" height="70" rx="2.5" fill="#4e83a6"/><text x="608" y="222" font-family="Arial, Helvetica, sans-serif" font-size="9" font-weight="700" fill="#4e83a6" text-anchor="start">CREW OPERATIONS</text><text x="608" y="246" font-family="Arial, Helvetica, sans-serif" font-size="18" font-weight="700" fill="#102a43" text-anchor="start">Marcus Pereira</text><text x="608" y="263" font-family="Arial, Helvetica, sans-serif" font-size="11" font-weight="400" fill="#557086" text-anchor="start">Crew Operations Manager</text></g><line x1="800" y1="274" x2="800" y2="297" stroke="#7792a7" stroke-width="2"/><line x1="160" y1="297" x2="1440" y2="297" stroke="#b7c7d3"/><g><rect x="64" y="318" width="354.5" height="256" rx="10" fill="#ffffff" stroke="#cbd6df"/><rect x="64" y="318" width="354.5" height="64" rx="10" fill="#102f4f"/><rect x="64" y="372" width="354.5" height="10" fill="#102f4f"/><circle cx="95" cy="350" r="18" fill="#315f80"/><text x="95" y="355" font-family="Arial, Helvetica, sans-serif" font-size="11" font-weight="700" fill="#fff" text-anchor="middle">CM</text><text x="122" y="341" font-family="Arial, Helvetica, sans-serif" font-size="8" font-weight="700" fill="#8fb5cf" text-anchor="start">CREW MANAGER</text><text x="122" y="361" font-family="Arial, Helvetica, sans-serif" font-size="15" font-weight="700" fill="#fff" text-anchor="start">Crew Manager 1</text><text x="122" y="375" font-family="Arial, Helvetica, sans-serif" font-size="9" font-weight="400" fill="#c2d3df" text-anchor="start">Senior Crew Manager</text><text x="82" y="404" font-family="Arial, Helvetica, sans-serif" font-size="9" font-weight="700" fill="#516b80" text-anchor="start">TEAM ASSISTANTS  2</text><rect x="82" y="416" width="318.5" height="23" rx="5" fill="#eef4f7"/><text x="90" y="431" font-family="Arial, Helvetica, sans-serif" font-size="10" font-weight="600" fill="#24465f" text-anchor="start">Assistant 1.1</text><rect x="82" y="445" width="318.5" height="23" rx="5" fill="#eef4f7"/><text x="90" y="460" font-family="Arial, Helvetica, sans-serif" font-size="10" font-weight="600" fill="#24465f" text-anchor="start">Assistant 1.2</text><line x1="82" y1="491" x2="400.5" y2="491" stroke="#e1e7ec"/><text x="82" y="512" font-family="Arial, Helvetica, sans-serif" font-size="9" font-weight="700" fill="#516b80" text-anchor="start">VESSELS HANDLED  10</text><rect x="82" y="522" width="318.5" height="33" rx="5" fill="#f8fafb" stroke="#e1e7ec"/><circle cx="96" cy="537" r="5" fill="#4e83a6"/><text x="109" y="537" font-family="Arial, Helvetica, sans-serif" font-size="10" font-weight="700" fill="#17344c" text-anchor="start">MV Horizon 1-1</text><text x="109" y="550" font-family="Arial, Helvetica, sans-serif" font-size="8" font-weight="400" fill="#6a7e8f" text-anchor="start">Bulk Carrier</text><text x="400.5" y="566" font-family="Arial, Helvetica, sans-serif" font-size="8" font-weight="600" fill="#4e83a6" text-anchor="end">+9 additional vessels</text></g><g><rect x="436.5" y="318" width="354.5" height="256" rx="10" fill="#ffffff" stroke="#cbd6df"/><rect x="436.5" y="318" width="354.5" height="64" rx="10" fill="#102f4f"/><rect x="436.5" y="372" width="354.5" height="10" fill="#102f4f"/><circle cx="467.5" cy="350" r="18" fill="#315f80"/><text x="467.5" y="355" font-family="Arial, Helvetica, sans-serif" font-size="11" font-weight="700" fill="#fff" text-anchor="middle">CM</text><text x="494.5" y="341" font-family="Arial, Helvetica, sans-serif" font-size="8" font-weight="700" fill="#8fb5cf" text-anchor="start">CREW MANAGER</text><text x="494.5" y="361" font-family="Arial, Helvetica, sans-serif" font-size="15" font-weight="700" fill="#fff" text-anchor="start">Crew Manager 2</text><text x="494.5" y="375" font-family="Arial, Helvetica, sans-serif" font-size="9" font-weight="400" fill="#c2d3df" text-anchor="start">Senior Crew Manager</text><text x="454.5" y="404" font-family="Arial, Helvetica, sans-serif" font-size="9" font-weight="700" fill="#516b80" text-anchor="start">TEAM ASSISTANTS  2</text><rect x="454.5" y="416" width="318.5" height="23" rx="5" fill="#eef4f7"/><text x="462.5" y="431" font-family="Arial, Helvetica, sans-serif" font-size="10" font-weight="600" fill="#24465f" text-anchor="start">Assistant 2.1</text><rect x="454.5" y="445" width="318.5" height="23" rx="5" fill="#eef4f7"/><text x="462.5" y="460" font-family="Arial, Helvetica, sans-serif" font-size="10" font-weight="600" fill="#24465f" text-anchor="start">Assistant 2.2</text><line x1="454.5" y1="491" x2="773" y2="491" stroke="#e1e7ec"/><text x="454.5" y="512" font-family="Arial, Helvetica, sans-serif" font-size="9" font-weight="700" fill="#516b80" text-anchor="start">VESSELS HANDLED  10</text><rect x="454.5" y="522" width="318.5" height="33" rx="5" fill="#f8fafb" stroke="#e1e7ec"/><circle cx="468.5" cy="537" r="5" fill="#4e83a6"/><text x="481.5" y="537" font-family="Arial, Helvetica, sans-serif" font-size="10" font-weight="700" fill="#17344c" text-anchor="start">MV Horizon 2-1</text><text x="481.5" y="550" font-family="Arial, Helvetica, sans-serif" font-size="8" font-weight="400" fill="#6a7e8f" text-anchor="start">Bulk Carrier</text><text x="773" y="566" font-family="Arial, Helvetica, sans-serif" font-size="8" font-weight="600" fill="#4e83a6" text-anchor="end">+9 additional vessels</text></g><g><rect x="809" y="318" width="354.5" height="256" rx="10" fill="#ffffff" stroke="#cbd6df"/><rect x="809" y="318" width="354.5" height="64" rx="10" fill="#102f4f"/><rect x="809" y="372" width="354.5" height="10" fill="#102f4f"/><circle cx="840" cy="350" r="18" fill="#315f80"/><text x="840" y="355" font-family="Arial, Helvetica, sans-serif" font-size="11" font-weight="700" fill="#fff" text-anchor="middle">CM</text><text x="867" y="341" font-family="Arial, Helvetica, sans-serif" font-size="8" font-weight="700" fill="#8fb5cf" text-anchor="start">CREW MANAGER</text><text x="867" y="361" font-family="Arial, Helvetica, sans-serif" font-size="15" font-weight="700" fill="#fff" text-anchor="start">Crew Manager 3</text><text x="867" y="375" font-family="Arial, Helvetica, sans-serif" font-size="9" font-weight="400" fill="#c2d3df" text-anchor="start">Senior Crew Manager</text><text x="827" y="404" font-family="Arial, Helvetica, sans-serif" font-size="9" font-weight="700" fill="#516b80" text-anchor="start">TEAM ASSISTANTS  2</text><rect x="827" y="416" width="318.5" height="23" rx="5" fill="#eef4f7"/><text x="835" y="431" font-family="Arial, Helvetica, sans-serif" font-size="10" font-weight="600" fill="#24465f" text-anchor="start">Assistant 3.1</text><rect x="827" y="445" width="318.5" height="23" rx="5" fill="#eef4f7"/><text x="835" y="460" font-family="Arial, Helvetica, sans-serif" font-size="10" font-weight="600" fill="#24465f" text-anchor="start">Assistant 3.2</text><line x1="827" y1="491" x2="1145.5" y2="491" stroke="#e1e7ec"/><text x="827" y="512" font-family="Arial, Helvetica, sans-serif" font-size="9" font-weight="700" fill="#516b80" text-anchor="start">VESSELS HANDLED  10</text><rect x="827" y="522" width="318.5" height="33" rx="5" fill="#f8fafb" stroke="#e1e7ec"/><circle cx="841" cy="537" r="5" fill="#4e83a6"/><text x="854" y="537" font-family="Arial, Helvetica, sans-serif" font-size="10" font-weight="700" fill="#17344c" text-anchor="start">MV Horizon 3-1</text><text x="854" y="550" font-family="Arial, Helvetica, sans-serif" font-size="8" font-weight="400" fill="#6a7e8f" text-anchor="start">Bulk Carrier</text><text x="1145.5" y="566" font-family="Arial, Helvetica, sans-serif" font-size="8" font-weight="600" fill="#4e83a6" text-anchor="end">+9 additional vessels</text></g><g><rect x="1181.5" y="318" width="354.5" height="256" rx="10" fill="#ffffff" stroke="#cbd6df"/><rect x="1181.5" y="318" width="354.5" height="64" rx="10" fill="#102f4f"/><rect x="1181.5" y="372" width="354.5" height="10" fill="#102f4f"/><circle cx="1212.5" cy="350" r="18" fill="#315f80"/><text x="1212.5" y="355" font-family="Arial, Helvetica, sans-serif" font-size="11" font-weight="700" fill="#fff" text-anchor="middle">CM</text><text x="1239.5" y="341" font-family="Arial, Helvetica, sans-serif" font-size="8" font-weight="700" fill="#8fb5cf" text-anchor="start">CREW MANAGER</text><text x="1239.5" y="361" font-family="Arial, Helvetica, sans-serif" font-size="15" font-weight="700" fill="#fff" text-anchor="start">Crew Manager 4</text><text x="1239.5" y="375" font-family="Arial, Helvetica, sans-serif" font-size="9" font-weight="400" fill="#c2d3df" text-anchor="start">Senior Crew Manager</text><text x="1199.5" y="404" font-family="Arial, Helvetica, sans-serif" font-size="9" font-weight="700" fill="#516b80" text-anchor="start">TEAM ASSISTANTS  2</text><rect x="1199.5" y="416" width="318.5" height="23" rx="5" fill="#eef4f7"/><text x="1207.5" y="431" font-family="Arial, Helvetica, sans-serif" font-size="10" font-weight="600" fill="#24465f" text-anchor="start">Assistant 4.1</text><rect x="1199.5" y="445" width="318.5" height="23" rx="5" fill="#eef4f7"/><text x="1207.5" y="460" font-family="Arial, Helvetica, sans-serif" font-size="10" font-weight="600" fill="#24465f" text-anchor="start">Assistant 4.2</text><line x1="1199.5" y1="491" x2="1518" y2="491" stroke="#e1e7ec"/><text x="1199.5" y="512" font-family="Arial, Helvetica, sans-serif" font-size="9" font-weight="700" fill="#516b80" text-anchor="start">VESSELS HANDLED  10</text><rect x="1199.5" y="522" width="318.5" height="33" rx="5" fill="#f8fafb" stroke="#e1e7ec"/><circle cx="1213.5" cy="537" r="5" fill="#4e83a6"/><text x="1226.5" y="537" font-family="Arial, Helvetica, sans-serif" font-size="10" font-weight="700" fill="#17344c" text-anchor="start">MV Horizon 4-1</text><text x="1226.5" y="550" font-family="Arial, Helvetica, sans-serif" font-size="8" font-weight="400" fill="#6a7e8f" text-anchor="start">Bulk Carrier</text><text x="1518" y="566" font-family="Arial, Helvetica, sans-serif" font-size="8" font-weight="600" fill="#4e83a6" text-anchor="end">+9 additional vessels</text></g><g><rect x="64" y="592" width="354.5" height="256" rx="10" fill="#ffffff" stroke="#cbd6df"/><rect x="64" y="592" width="354.5" height="64" rx="10" fill="#102f4f"/><rect x="64" y="646" width="354.5" height="10" fill="#102f4f"/><circle cx="95" cy="624" r="18" fill="#315f80"/><text x="95" y="629" font-family="Arial, Helvetica, sans-serif" font-size="11" font-weight="700" fill="#fff" text-anchor="middle">CM</text><text x="122" y="615" font-family="Arial, Helvetica, sans-serif" font-size="8" font-weight="700" fill="#8fb5cf" text-anchor="start">CREW MANAGER</text><text x="122" y="635" font-family="Arial, Helvetica, sans-serif" font-size="15" font-weight="700" fill="#fff" text-anchor="start">Crew Manager 5</text><text x="122" y="649" font-family="Arial, Helvetica, sans-serif" font-size="9" font-weight="400" fill="#c2d3df" text-anchor="start">Senior Crew Manager</text><text x="82" y="678" font-family="Arial, Helvetica, sans-serif" font-size="9" font-weight="700" fill="#516b80" text-anchor="start">TEAM ASSISTANTS  2</text><rect x="82" y="690" width="318.5" height="23" rx="5" fill="#eef4f7"/><text x="90" y="705" font-family="Arial, Helvetica, sans-serif" font-size="10" font-weight="600" fill="#24465f" text-anchor="start">Assistant 5.1</text><rect x="82" y="719" width="318.5" height="23" rx="5" fill="#eef4f7"/><text x="90" y="734" font-family="Arial, Helvetica, sans-serif" font-size="10" font-weight="600" fill="#24465f" text-anchor="start">Assistant 5.2</text><line x1="82" y1="765" x2="400.5" y2="765" stroke="#e1e7ec"/><text x="82" y="786" font-family="Arial, Helvetica, sans-serif" font-size="9" font-weight="700" fill="#516b80" text-anchor="start">VESSELS HANDLED  10</text><rect x="82" y="796" width="318.5" height="33" rx="5" fill="#f8fafb" stroke="#e1e7ec"/><circle cx="96" cy="811" r="5" fill="#4e83a6"/><text x="109" y="811" font-family="Arial, Helvetica, sans-serif" font-size="10" font-weight="700" fill="#17344c" text-anchor="start">MV Horizon 5-1</text><text x="109" y="824" font-family="Arial, Helvetica, sans-serif" font-size="8" font-weight="400" fill="#6a7e8f" text-anchor="start">Bulk Carrier</text><text x="400.5" y="840" font-family="Arial, Helvetica, sans-serif" font-size="8" font-weight="600" fill="#4e83a6" text-anchor="end">+9 additional vessels</text></g><g><rect x="436.5" y="592" width="354.5" height="256" rx="10" fill="#ffffff" stroke="#cbd6df"/><rect x="436.5" y="592" width="354.5" height="64" rx="10" fill="#102f4f"/><rect x="436.5" y="646" width="354.5" height="10" fill="#102f4f"/><circle cx="467.5" cy="624" r="18" fill="#315f80"/><text x="467.5" y="629" font-family="Arial, Helvetica, sans-serif" font-size="11" font-weight="700" fill="#fff" text-anchor="middle">CM</text><text x="494.5" y="615" font-family="Arial, Helvetica, sans-serif" font-size="8" font-weight="700" fill="#8fb5cf" text-anchor="start">CREW MANAGER</text><text x="494.5" y="635" font-family="Arial, Helvetica, sans-serif" font-size="15" font-weight="700" fill="#fff" text-anchor="start">Crew Manager 6</text><text x="494.5" y="649" font-family="Arial, Helvetica, sans-serif" font-size="9" font-weight="400" fill="#c2d3df" text-anchor="start">Senior Crew Manager</text><text x="454.5" y="678" font-family="Arial, Helvetica, sans-serif" font-size="9" font-weight="700" fill="#516b80" text-anchor="start">TEAM ASSISTANTS  2</text><rect x="454.5" y="690" width="318.5" height="23" rx="5" fill="#eef4f7"/><text x="462.5" y="705" font-family="Arial, Helvetica, sans-serif" font-size="10" font-weight="600" fill="#24465f" text-anchor="start">Assistant 6.1</text><rect x="454.5" y="719" width="318.5" height="23" rx="5" fill="#eef4f7"/><text x="462.5" y="734" font-family="Arial, Helvetica, sans-serif" font-size="10" font-weight="600" fill="#24465f" text-anchor="start">Assistant 6.2</text><line x1="454.5" y1="765" x2="773" y2="765" stroke="#e1e7ec"/><text x="454.5" y="786" font-family="Arial, Helvetica, sans-serif" font-size="9" font-weight="700" fill="#516b80" text-anchor="start">VESSELS HANDLED  10</text><rect x="454.5" y="796" width="318.5" height="33" rx="5" fill="#f8fafb" stroke="#e1e7ec"/><circle cx="468.5" cy="811" r="5" fill="#4e83a6"/><text x="481.5" y="811" font-family="Arial, Helvetica, sans-serif" font-size="10" font-weight="700" fill="#17344c" text-anchor="start">MV Horizon 6-1</text><text x="481.5" y="824" font-family="Arial, Helvetica, sans-serif" font-size="8" font-weight="400" fill="#6a7e8f" text-anchor="start">Bulk Carrier</text><text x="773" y="840" font-family="Arial, Helvetica, sans-serif" font-size="8" font-weight="600" fill="#4e83a6" text-anchor="end">+9 additional vessels</text></g><line x1="64" y1="866" x2="1536" y2="866" stroke="#d7e0e7"/><text x="64" y="887" font-family="Arial, Helvetica, sans-serif" font-size="9" font-weight="400" fill="#6a7e8f" text-anchor="start">Internal presentation • Crew Operations</text><text x="1536" y="887" font-family="Arial, Helvetica, sans-serif" font-size="9" font-weight="700" fill="#6a7e8f" text-anchor="end">6 CREW MANAGEMENT TEAMS</text></svg>